<svg width="94" height="31" viewBox="0 0 94 31" fill="none" xmlns="http://www.w3.org/2000/svg">
<path d="M15.9855 19.0109C17.5368 19.3415 18.7828 20.1171 19.7238 21.3377C20.6647 22.533 21.1351 23.9062 21.1351 25.4575C21.1351 27.6953 20.3468 29.4755 18.7701 30.7978C17.2189 32.0948 15.0446 32.7433 12.2472 32.7433H-0.226347V5.9651H11.8276C14.5487 5.9651 16.6721 6.58814 18.1979 7.83423C19.7492 9.08031 20.5248 10.7714 20.5248 12.9076C20.5248 14.4843 20.1052 15.7939 19.266 16.8366C18.4522 17.8792 17.3587 18.604 15.9855 19.0109ZM6.29654 16.7984H10.5688C11.6369 16.7984 12.4507 16.5696 13.0101 16.1118C13.595 15.6286 13.8875 14.9293 13.8875 14.0138C13.8875 13.0983 13.595 12.399 13.0101 11.9158C12.4507 11.4326 11.6369 11.191 10.5688 11.191H6.29654V16.7984ZM11.1029 27.4792C12.1964 27.4792 13.0356 27.2376 13.6205 26.7544C14.2308 26.2458 14.536 25.521 14.536 24.5801C14.536 23.6392 14.2181 22.9017 13.5823 22.3677C12.972 21.8336 12.1201 21.5666 11.0266 21.5666H6.29654V27.4792H11.1029Z" fill="#FEFEFE"/>
<path d="M27.9873 4.51557V32.7433H21.4644V4.51557H27.9873Z" fill="#FEFEFE"/>
<path d="M35.8574 4.51557V32.7433H29.3345V4.51557H35.8574Z" fill="#FEFEFE"/>
<path d="M94.9206 11.4581L89.1607 32.7433H81.9511L78.5943 18.9346L75.1231 32.7433H67.9517L62.1536 11.4581H68.6765L71.69 26.6781L75.2757 11.4581H82.18L85.8038 26.6018L88.7792 11.4581H94.9206Z" fill="#FEFEFE"/>
<path fill-rule="evenodd" clip-rule="evenodd" d="M50.3879 5.75836C57.2982 5.75836 62.7689 11.229 62.7689 18.0434C62.7689 24.8578 57.2982 30.3284 50.3879 30.3284C43.5735 30.3284 38.0068 24.8578 38.0068 18.0434C38.0068 11.229 43.5735 5.75836 50.3879 5.75836ZM50.3879 7.77388C52.4034 14.4923 54.2269 16.3158 60.7534 18.0434C53.939 20.0589 52.1154 21.8825 50.3879 28.4089C48.4683 21.5945 46.5488 19.771 40.1183 18.0434C46.8367 16.1239 48.6603 14.2043 50.3879 7.77388Z" fill="white"/>
</svg>
